<svg aria-hidden="true" style="position: absolute; width: 0; height: 0; overflow: hidden;" version="1.1" xmlns="http://www.w3.org/2000/svg" xmlns:xlink="http://www.w3.org/1999/xlink">
<defs>
<symbol id="icon-nodejs-original" viewBox="0 0 32 32">
<title>nodejs-original</title>
<path fill="#83cd29" style="fill: var(--color1, #83cd29)" d="M28.193 7.583l-11.024-6.401c-0.695-0.396-1.601-0.396-2.301 0l-11.142 6.401c-0.718 0.413-1.225 1.189-1.225 2.018v12.786c0 0.83 0.521 1.606 1.239 2.021l2.944 1.672c1.407 0.693 1.904 0.693 2.544 0.693 2.083 0 3.273-1.26 3.273-3.457v-12.623c0-0.178-0.093-0.444-0.268-0.444h-1.406c-0.178 0-0.576 0.265-0.576 0.443v12.622c0 0.974-0.881 1.943-2.527 1.12l-3.042-1.753c-0.106-0.058-0.181-0.173-0.181-0.295v-12.786c0-0.12 0.139-0.242 0.245-0.303l11.106-6.39c0.104-0.059 0.256-0.059 0.36 0l10.971 6.389c0.105 0.063 0.068 0.181 0.068 0.305v12.786c0 0.122 0.046 0.241-0.058 0.299l-11.021 6.394c-0.095 0.057-0.212 0.057-0.315 0l-2.827-1.687c-0.085-0.049-0.187-0.067-0.268-0.021-0.787 0.446-0.931 0.505-1.669 0.761-0.181 0.063-0.449 0.173 0.102 0.482l3.7 2.189c0.354 0.205 0.757 0.311 1.162 0.311 0.41 0 0.813-0.107 1.167-0.311l10.971-6.395c0.718-0.418 1.058-1.191 1.058-2.021v-12.786c0-0.83-0.34-1.604-1.057-2.018zM19.477 20.361c-2.931 0-3.577-0.809-3.793-2.267-0.025-0.157-0.158-0.345-0.318-0.345h-1.433c-0.177 0-0.32 0.215-0.32 0.392 0 1.866 1.015 4.128 5.863 4.128 3.51 0 5.522-1.364 5.522-3.777 0-2.393-1.617-3.021-5.020-3.471-3.441-0.455-3.79-0.684-3.79-1.491 0-0.665 0.296-1.551 2.843-1.551 2.276 0 3.115 0.489 3.46 2.023 0.029 0.144 0.161 0.248 0.31 0.248h1.439c0.088 0 0.173-0.036 0.235-0.099 0.060-0.068 0.092-0.153 0.084-0.245-0.223-2.642-1.978-3.873-5.528-3.873-3.158 0-5.041 1.334-5.041 3.569 0 2.425 1.874 3.095 4.905 3.394 3.626 0.355 3.908 0.886 3.908 1.599 0 1.239-0.994 1.767-3.327 1.767z"></path>
</symbol>
<symbol id="icon-vuejs-original" viewBox="0 0 32 32">
<title>vuejs-original</title>
<path fill="#35495e" style="fill: var(--color2, #35495e)" d="M6.499 2.348l5.75 0.002 3.759 6.239 3.746-6.239 5.745-0.001-9.462 16.414z"></path>
<path fill="#41b883" style="fill: var(--color3, #41b883)" d="M0.228 2.392l6.266-0.043 9.538 16.414 9.463-16.413 6.277 0.007-15.741 27.015z"></path>
</symbol>
<symbol id="icon-css3-original" viewBox="0 0 32 32">
<title>css3-original</title>
<path fill="#1572b6" style="fill: var(--color4, #1572b6)" d="M4.704 28.531l-2.514-28.193h27.62l-2.516 28.189-11.311 3.136-11.28-3.131z"></path>
<path fill="#33a9dc" style="fill: var(--color5, #33a9dc)" d="M16 29.265l9.14-2.534 2.15-24.088h-11.29v26.622z"></path>
<path fill="#fff" style="fill: var(--color6, #fff)" d="M16 12.857h4.575l0.316-3.541h-4.892v-3.458h8.671l-0.083 0.928-0.85 9.529h-7.738v-3.458z"></path>
<path fill="#ebebeb" style="fill: var(--color7, #ebebeb)" d="M16.021 21.837l-0.015 0.005-3.851-1.040-0.246-2.758h-3.47l0.484 5.429 7.083 1.966 0.016-0.005v-3.598z"></path>
<path fill="#fff" style="fill: var(--color6, #fff)" d="M20.282 16.169l-0.416 4.631-3.857 1.041v3.598l7.088-1.965 0.052-0.584 0.602-6.72h-3.469z"></path>
<path fill="#ebebeb" style="fill: var(--color7, #ebebeb)" d="M16.012 5.859v3.458h-8.352l-0.069-0.777-0.157-1.753-0.083-0.928h8.662zM16 12.858v3.458h-3.802l-0.069-0.777-0.158-1.753-0.082-0.928h4.112z"></path>
</symbol>
<symbol id="icon-python-original" viewBox="0 0 32 32">
<title>python-original</title>
<path fill="#000" style="fill: var(--color8, #000)" d="M15.848 0.497c-1.056 0.005-2.063 0.095-2.95 0.252-2.613 0.462-3.087 1.427-3.087 3.209v2.353h6.173v0.784h-8.49c-1.794 0-3.365 1.078-3.857 3.13-0.567 2.351-0.592 3.819 0 6.274 0.439 1.828 1.487 3.13 3.281 3.13h2.123v-2.82c0-2.038 1.763-3.835 3.857-3.835h6.166c1.716 0 3.087-1.413 3.087-3.137v-5.878c0-1.673-1.412-2.93-3.087-3.209-1.061-0.176-2.161-0.257-3.216-0.252zM12.509 2.389c0.637 0 1.159 0.529 1.159 1.18 0 0.648-0.521 1.172-1.159 1.172-0.64 0-1.158-0.524-1.158-1.173-0-0.651 0.518-1.18 1.158-1.18z"></path>
<path fill="#000" style="fill: var(--color8, #000)" d="M22.921 7.095v2.741c0 2.125-1.802 3.914-3.857 3.914h-6.166c-1.689 0-3.086 1.446-3.086 3.137v5.879c0 1.673 1.454 2.657 3.087 3.137 1.954 0.574 3.828 0.678 6.166 0 1.554-0.45 3.087-1.356 3.087-3.137v-2.353h-6.166v-0.785h9.253c1.794 0 2.463-1.251 3.087-3.13 0.645-1.934 0.617-3.793 0-6.274-0.444-1.786-1.29-3.13-3.087-3.13h-2.317zM19.452 21.982c0.64 0 1.159 0.524 1.159 1.173 0 0.651-0.518 1.18-1.159 1.18-0.637 0-1.158-0.529-1.158-1.18 0-0.649 0.521-1.173 1.158-1.173z"></path>
<path fill="#000" opacity="0.444" style="fill: var(--color8, #000)" d="M24.327 29.899c0 0.886-3.704 1.604-8.273 1.604s-8.273-0.718-8.273-1.604c0-0.886 3.704-1.604 8.273-1.604s8.273 0.718 8.273 1.604z"></path>
</symbol>
<symbol id="icon-mysql-original" viewBox="0 0 32 32">
<title>mysql-original</title>
<path fill="#00618a" style="fill: var(--color9, #00618a)" d="M29.237 24.452c-1.716-0.047-3.026 0.113-4.146 0.585-0.318 0.134-0.826 0.138-0.878 0.537 0.175 0.183 0.202 0.457 0.341 0.683 0.267 0.433 0.719 1.013 1.122 1.317 0.441 0.332 0.894 0.688 1.366 0.976 0.84 0.512 1.777 0.804 2.585 1.317 0.477 0.302 0.95 0.683 1.415 1.024 0.23 0.169 0.384 0.431 0.683 0.537v-0.049c-0.157-0.2-0.198-0.474-0.341-0.683l-0.634-0.634c-0.62-0.823-1.407-1.546-2.244-2.146-0.667-0.479-2.16-1.126-2.439-1.902l-0.049-0.049c0.473-0.053 1.027-0.224 1.463-0.342 0.733-0.197 1.389-0.146 2.146-0.341l1.024-0.293v-0.195c-0.383-0.393-0.656-0.913-1.073-1.268-1.093-0.93-2.285-1.859-3.512-2.634-0.681-0.43-1.522-0.709-2.244-1.073-0.243-0.123-0.669-0.186-0.829-0.39-0.379-0.483-0.585-1.096-0.878-1.658-0.612-1.179-1.213-2.467-1.756-3.708-0.37-0.846-0.612-1.68-1.073-2.439-2.215-3.642-4.599-5.84-8.292-8-0.786-0.46-1.732-0.641-2.732-0.878-0.536-0.032-1.073-0.065-1.609-0.098-0.328-0.136-0.668-0.537-0.976-0.732-1.224-0.773-4.362-2.454-5.268-0.244-0.572 1.395 0.855 2.756 1.365 3.464 0.358 0.495 0.817 1.052 1.073 1.609 0.168 0.367 0.197 0.734 0.342 1.122 0.354 0.956 0.663 1.995 1.122 2.878 0.232 0.447 0.487 0.918 0.78 1.317 0.179 0.245 0.488 0.353 0.536 0.732-0.301 0.421-0.318 1.076-0.487 1.61-0.763 2.404-0.475 5.392 0.634 7.171 0.34 0.546 1.142 1.718 2.244 1.268 0.964-0.392 0.749-1.61 1.024-2.683 0.062-0.243 0.024-0.422 0.146-0.585v0.049l0.878 1.756c0.65 1.047 1.803 2.14 2.78 2.878 0.507 0.383 0.906 1.044 1.561 1.268v-0.049h-0.049c-0.127-0.198-0.326-0.28-0.488-0.439-0.382-0.374-0.806-0.84-1.122-1.268-0.889-1.207-1.675-2.527-2.39-3.902-0.342-0.657-0.639-1.381-0.927-2.049-0.111-0.258-0.11-0.647-0.341-0.78-0.316 0.489-0.78 0.886-1.024 1.463-0.39 0.924-0.441 2.051-0.585 3.22-0.085 0.030-0.048 0.009-0.098 0.049-0.679-0.164-0.918-0.863-1.171-1.463-0.638-1.517-0.757-3.96-0.195-5.707 0.146-0.452 0.803-1.875 0.537-2.293-0.127-0.416-0.546-0.658-0.78-0.976-0.29-0.393-0.58-0.912-0.781-1.366-0.522-1.183-0.766-2.511-1.317-3.707-0.263-0.572-0.708-1.151-1.073-1.659-0.404-0.563-0.857-0.978-1.171-1.659-0.111-0.242-0.263-0.629-0.098-0.878 0.052-0.168 0.127-0.238 0.293-0.292 0.283-0.218 1.071 0.073 1.366 0.195 0.782 0.325 1.435 0.635 2.098 1.073 0.318 0.211 0.64 0.619 1.024 0.732h0.439c0.687 0.158 1.456 0.049 2.098 0.244 1.134 0.345 2.15 0.881 3.073 1.463 2.812 1.776 5.111 4.303 6.683 7.317 0.253 0.486 0.363 0.948 0.585 1.463 0.45 1.038 1.016 2.106 1.463 3.122 0.447 1.013 0.881 2.035 1.512 2.878 0.332 0.443 1.613 0.681 2.195 0.927 0.408 0.172 1.077 0.352 1.463 0.585 0.738 0.445 1.454 0.976 2.146 1.464 0.346 0.244 1.41 0.779 1.463 1.22zM7.432 5.867c-0.358-0.007-0.611 0.039-0.878 0.097v0.049h0.049c0.171 0.351 0.472 0.577 0.683 0.878 0.162 0.342 0.325 0.683 0.488 1.024l0.048-0.048c0.302-0.213 0.44-0.553 0.439-1.074-0.121-0.127-0.139-0.287-0.244-0.439-0.139-0.203-0.409-0.318-0.585-0.488z"></path>
</symbol>
<symbol id="icon-javascript-original" viewBox="0 0 32 32">
<title>javascript-original</title>
<path fill="#f0db4f" style="fill: var(--color10, #f0db4f)" d="M0.352 0.352h31.296v31.296h-31.296z"></path>
<path fill="#323330" style="fill: var(--color11, #323330)" d="M29.087 24.184c-0.229-1.428-1.16-2.627-3.918-3.745-0.958-0.44-2.026-0.756-2.344-1.482-0.113-0.422-0.128-0.66-0.056-0.916 0.205-0.83 1.196-1.089 1.981-0.851 0.506 0.169 0.985 0.559 1.273 1.181 1.351-0.875 1.348-0.869 2.291-1.47-0.345-0.535-0.529-0.782-0.756-1.011-0.812-0.907-1.919-1.374-3.689-1.339l-0.922 0.119c-0.884 0.223-1.726 0.687-2.219 1.309-1.482 1.681-1.059 4.623 0.744 5.834 1.776 1.333 4.385 1.636 4.718 2.883 0.324 1.526-1.122 2.020-2.558 1.845-1.059-0.22-1.648-0.759-2.285-1.737-1.172 0.678-1.172 0.678-2.377 1.371 0.286 0.625 0.586 0.907 1.065 1.449 2.267 2.3 7.94 2.186 8.957-1.294 0.041-0.119 0.315-0.916 0.095-2.145zM17.366 14.736h-2.927l-0.012 7.568c0 1.61 0.083 3.085-0.178 3.537-0.428 0.889-1.538 0.779-2.044 0.607-0.515-0.253-0.777-0.613-1.080-1.121-0.083-0.146-0.146-0.259-0.167-0.268l-2.38 1.457c0.396 0.812 0.979 1.517 1.726 1.975 1.116 0.669 2.615 0.875 4.183 0.515 1.021-0.297 1.901-0.913 2.362-1.85 0.666-1.229 0.523-2.716 0.517-4.361 0.015-2.684 0-5.367 0-8.059z"></path>
</symbol>
<symbol id="icon-java-plain-wordmark" viewBox="0 0 32 32">
<title>java-plain-wordmark</title>
<path fill="#ea2d2e" style="fill: var(--color12, #ea2d2e)" d="M13.399 16.954c-3.306 0.924 2.011 2.831 6.22 1.028-0.689-0.268-1.184-0.577-1.184-0.577-1.877 0.355-2.748 0.383-4.451 0.188-1.406-0.161-0.585-0.639-0.585-0.639zM19.115 15.152c-2.488 0.479-3.925 0.463-5.745 0.276-1.407-0.146-0.486-0.828-0.486-0.828-3.641 1.209 2.027 2.579 7.115 1.091-0.541-0.19-0.884-0.539-0.884-0.539zM21.064 4.72s-7.36 1.838-3.845 5.888c1.038 1.194-0.272 2.268-0.272 2.268s2.633-1.359 1.424-3.062c-1.13-1.587-1.995-2.376 2.693-5.095zM9.37 20.326c8.581 1.391 15.642-0.627 13.416-1.631 0 0 0.608 0.501-0.67 0.889-2.429 0.736-10.111 0.958-12.245 0.029-0.767-0.334 0.672-0.797 1.124-0.894 0.472-0.102 0.741-0.084 0.741-0.084-0.853-0.601-5.514 1.18-2.367 1.69zM19.837 13.471c0.413-0.281 0.983-0.526 0.983-0.526s-1.623 0.29-3.24 0.426c-1.979 0.166-4.103 0.199-5.169 0.056-2.524-0.338 1.383-1.266 1.383-1.266s-1.518-0.103-3.383 0.8c-2.207 1.067 5.458 1.553 9.427 0.51zM20.803 16.079c-0.018 0.050-0.081 0.106-0.081 0.106 5.386-1.416 3.406-4.991 0.831-4.086-0.226 0.080-0.345 0.266-0.345 0.266s0.143-0.057 0.461-0.124c1.302-0.271 3.167 1.743-0.867 3.838zM16.252 12.123c-0.795-1.796-3.489-3.368 0.001-6.125 4.352-3.436 2.119-5.67 2.119-5.67 0.901 3.549-3.178 4.622-4.65 6.832-1.002 1.506 0.492 3.125 2.53 4.963zM20.949 21.036c-3.305 0.622-7.381 0.55-9.798 0.151 0 0 0.495 0.41 3.039 0.573 3.871 0.247 9.817-0.138 9.958-1.97 0-0-0.27 0.694-3.2 1.245zM12.783 24.884c-0.722 0-1.338 0.178-1.852 0.405l0.156 0.623c0.405-0.149 0.905-0.287 1.418-0.287 0.713 0 0.995 0.287 0.995 0.88v0.494h-0.3c-1.73 0-2.511 0.646-2.511 1.656 0 0.87 0.515 1.352 1.483 1.352 0.623 0 1.088-0.211 1.522-0.587l0.079 0.58h0.727v-3.623c0-0.9-0.481-1.493-1.717-1.493zM13.5 28.759c-0.25 0.317-0.723 0.494-1.070 0.494-0.493 0-0.747-0.343-0.747-0.817 0-0.514 0.3-0.936 1.448-0.936h0.368v1.259zM17.403 28.92l-0.209-0.902-0.939-3.018h-1.098l1.513 5h1.256c0.721-1.75 1.236-3.5 1.521-5h-1.068c-0.168 1.25-0.504 2.606-0.978 3.92zM22.004 24.884c-0.722 0-1.353 0.178-1.867 0.405l0.149 0.623c0.405-0.149 0.93-0.287 1.445-0.287 0.712 0 1.020 0.287 1.020 0.88v0.494h-0.357c-1.731 0-2.511 0.646-2.511 1.656 0 0.87 0.514 1.352 1.483 1.352 0.623 0 1.087-0.211 1.523-0.587l0.079 0.58h0.784v-3.623c0-0.9-0.511-1.493-1.746-1.493zM21.651 29.249c-0.494 0-0.762-0.341-0.762-0.815 0-0.514 0.287-0.934 1.434-0.934h0.427v1.25h-0.017c-0.366 0.25-0.737 0.499-1.082 0.499zM9 28.843c0 0.818-0.111 1.16-0.245 1.425-0.154 0.298-0.513 0.619-0.9 0.817l0.483 0.586c0.508-0.187 0.986-0.52 1.273-0.939 0.287-0.431 0.389-0.873 0.389-1.967v-5.516h-1v5.593z"></path>
</symbol>
<symbol id="icon-java-original" viewBox="0 0 32 32">
<title>java-original</title>
<path fill="#0074bd" style="fill: var(--color13, #0074bd)" d="M11.904 24.53s-1.192 0.694 0.849 0.927c2.473 0.282 3.737 0.242 6.461-0.273 0 0 0.718 0.449 1.718 0.838-6.11 2.617-13.827-0.152-9.029-1.492zM11.157 21.114s-1.337 0.99 0.706 1.201c2.642 0.273 4.727 0.295 8.338-0.4 0 0 0.498 0.506 1.283 0.783-7.386 2.16-15.611 0.17-10.327-1.584z"></path>
<path fill="#ea2d2e" style="fill: var(--color12, #ea2d2e)" d="M17.451 15.318c1.506 1.734-0.395 3.293-0.395 3.293s3.822-1.973 2.067-4.444c-1.64-2.304-2.897-3.448 3.909-7.395 0 0-10.683 2.668-5.581 8.547z"></path>
<path fill="#0074bd" style="fill: var(--color13, #0074bd)" d="M25.531 27.057s0.882 0.727-0.972 1.29c-3.526 1.068-14.677 1.39-17.773 0.043-1.113-0.485 0.975-1.156 1.631-1.298 0.685-0.148 1.076-0.121 1.076-0.121-1.238-0.872-8.003 1.712-3.436 2.454 12.455 2.019 22.704-0.909 19.474-2.367zM12.478 17.573s-5.671 1.347-2.008 1.837c1.547 0.207 4.63 0.16 7.503-0.081 2.348-0.197 4.703-0.619 4.703-0.619s-0.827 0.355-1.426 0.763c-5.761 1.515-16.886 0.809-13.683-0.739 2.708-1.31 4.911-1.161 4.911-1.161zM22.652 23.26c5.855-3.042 3.148-5.965 1.258-5.571-0.462 0.096-0.669 0.18-0.669 0.18s0.172-0.27 0.5-0.386c3.738-1.314 6.613 3.876-1.206 5.931 0-0 0.090-0.082 0.117-0.154z"></path>
<path fill="#ea2d2e" style="fill: var(--color12, #ea2d2e)" d="M19.123 0.397s3.242 3.244-3.076 8.231c-5.066 4.002-1.155 6.282-0.002 8.89-2.958-2.668-5.127-5.018-3.672-7.204 2.137-3.208 8.057-4.765 6.75-9.917z"></path>
<path fill="#0074bd" style="fill: var(--color13, #0074bd)" d="M13.053 31.505c5.619 0.359 14.25-0.2 14.454-2.859 0 0-0.393 1.008-4.644 1.808-4.797 0.903-10.713 0.798-14.222 0.218 0 0 0.719 0.595 4.412 0.833z"></path>
</symbol>
<symbol id="icon-html5-plain" viewBox="0 0 32 32">
<title>html5-plain</title>
<path fill="#e44d26" style="fill: var(--color14, #e44d26)" d="M2.258 0.5l2.501 28.023 11.224 3.1 11.255-3.097 2.504-28.027h-27.484zM24.54 7.135l-0.157 1.793-0.069 0.822h-13.166l0.314 3.5h12.539l-0.084 0.868-0.808 9.030-0.059 0.567-7.058 1.942-7.044-1.856-0.478-5.302h3.454l0.245 2.73 3.833 1.020v-0.137l3.839-0.969 0.401-4.395h-11.925l-0.846-9.529-0.082-0.971h17.235l-0.082 0.885z"></path>
</symbol>
<symbol id="icon-html5-original" viewBox="0 0 32 32">
<title>html5-original</title>
<path fill="#e44d26" style="fill: var(--color14, #e44d26)" d="M4.759 28.469l-2.501-28.054h27.484l-2.504 28.049-11.255 3.12z"></path>
<path fill="#f16529" style="fill: var(--color15, #f16529)" d="M16 29.2l9.095-2.521 2.14-23.97h-11.234z"></path>
<path fill="#ebebeb" style="fill: var(--color7, #ebebeb)" d="M16 13.114h-4.553l-0.315-3.524h4.867v-3.441h-8.628l0.082 0.923 0.845 9.482h7.7zM16 22.049l-0.015 0.004-3.832-1.035-0.245-2.744h-3.454l0.482 5.402 7.048 1.956 0.016-0.004z"></path>
<path fill="#fff" style="fill: var(--color6, #fff)" d="M15.988 13.114v3.441h4.237l-0.399 4.462-3.838 1.036v3.58l7.054-1.955 0.052-0.581 0.808-9.058 0.084-0.924h-0.927zM15.988 6.15v3.441h8.311l0.069-0.773 0.157-1.745 0.082-0.923z"></path>
</symbol>
<symbol id="icon-dot-net-original" viewBox="0 0 32 32">
<title>dot-net-original</title>
<path fill="#000" style="fill: var(--color8, #000)" d="M11.322 12.39c1.104 3.377 1.523 9.4 4.752 9.4 0.245 0 0.494-0.024 0.744-0.072-2.935-0.684-3.283-6.642-5.074-9.728-0.14 0.128-0.28 0.261-0.421 0.399z"></path>
<path fill="#000" style="fill: var(--color8, #000)" d="M11.743 11.991c1.791 3.085 2.139 9.043 5.074 9.728 0.231-0.042 0.462-0.107 0.693-0.187-2.635-1.291-3.363-7.076-5.397-9.862-0.123 0.102-0.247 0.21-0.37 0.321z"></path>
<path fill="#14559a" style="fill: var(--color16, #14559a)" d="M14.323 10.156c-0.245 0-0.494 0.024-0.744 0.072-0.653 0.123-1.317 0.405-1.986 0.83 0.182 0.181 0.357 0.387 0.52 0.612 0.681-0.565 1.357-0.982 2.030-1.233 0.253-0.094 0.505-0.164 0.757-0.21-0.182-0.046-0.374-0.070-0.577-0.070z"></path>
<path fill="#000" style="fill: var(--color8, #000)" d="M19.567 20.341c0.27-0.214 0.54-0.451 0.81-0.71-1.122-3.361-1.524-9.471-4.775-9.471-0.232 0-0.467 0.022-0.701 0.065 2.962 0.737 3.341 7.181 4.666 10.116z"></path>
<path fill="#3092c4" style="fill: var(--color17, #3092c4)" d="M14.901 10.226c-0.182-0.046-0.374-0.070-0.578-0.070l1.278 0.005c-0.232 0-0.467 0.021-0.701 0.066z"></path>
<path fill="#1969bc" style="fill: var(--color18, #1969bc)" d="M19.51 21.055c-0.127-0.121-0.248-0.254-0.366-0.396-0.547 0.387-1.092 0.681-1.633 0.872 0.193 0.094 0.395 0.164 0.609 0.207 0.166 0.034 0.338 0.052 0.519 0.052 0.608 0 1.088-0.072 1.497-0.268-0.225-0.122-0.431-0.279-0.625-0.467z"></path>
<path fill="#000" style="fill: var(--color8, #000)" d="M14.143 10.437c2.653 1.387 2.883 7.671 5 10.222 0.142-0.1 0.282-0.206 0.423-0.318-1.325-2.935-1.704-9.38-4.665-10.116-0.253 0.047-0.505 0.117-0.758 0.211z"></path>
<path fill="#000" style="fill: var(--color8, #000)" d="M12.113 11.669c2.034 2.785 2.762 8.571 5.397 9.862 0.541-0.191 1.087-0.485 1.633-0.872-2.117-2.551-2.348-8.835-5-10.222-0.673 0.251-1.349 0.668-2.030 1.232z"></path>
<path fill="#000" style="fill: var(--color8, #000)" d="M10.021 12.309c-0.319 0.721-0.645 1.668-1.038 2.905 0.783-1.103 1.563-2.053 2.339-2.824-0.107-0.329-0.222-0.632-0.345-0.902-0.317 0.242-0.637 0.516-0.956 0.82z"></path>
<path fill="#2b74b1" style="fill: var(--color19, #2b74b1)" d="M11.259 11.28c-0.094 0.067-0.188 0.136-0.283 0.208 0.124 0.27 0.238 0.573 0.345 0.902 0.141-0.138 0.281-0.271 0.421-0.399-0.15-0.258-0.31-0.496-0.483-0.71z"></path>
<path fill="#125a9e" style="fill: var(--color20, #125a9e)" d="M11.593 11.057c-0.111 0.070-0.222 0.145-0.334 0.223 0.174 0.214 0.333 0.453 0.484 0.711 0.124-0.112 0.247-0.22 0.37-0.322-0.164-0.225-0.338-0.431-0.52-0.612z"></path>
<path fill="#000" style="fill: var(--color8, #000)" d="M29.688 9.899c-1.5 5.786-4.634 10.434-7.261 11.605h-0.005l-0.142 0.061-0.017 0.007-0.040 0.015-0.018 0.008-0.093 0.033-0.033 0.011-0.032 0.011-0.028 0.009-0.056 0.017-0.024 0.006-0.064 0.017-0.041 0.011-0.050 0.011c0.119 0.044 0.242 0.066 0.376 0.066 2.491 0 5.003-4.465 9.159-11.889l-1.632 0.001z"></path>
<path fill="#000" style="fill: var(--color8, #000)" d="M8.441 10.391l0.005-0.004 0.006-0.004h0.003l0.040-0.015 0.008-0.004 0.011-0.004 0.043-0.015h0.002l0.096-0.034 0.014-0.004 0.041-0.012 0.019-0.006 0.041-0.012 0.016-0.004 0.137-0.036 0.019-0.004 0.040-0.008 0.020-0.006 0.040-0.008h0.009l0.083-0.015h0.017l0.039-0.007 0.022-0.004 0.037-0.005 0.020-0.004 0.089-0.008c-0.086-0.008-0.175-0.014-0.265-0.014-2.806 0-6.671 5.205-8.412 11.947h0.336c0.557-0.994 1.058-1.934 1.516-2.817 1.22-4.775 3.704-8.031 5.91-8.894z"></path>
<path fill="#0d82ca" style="fill: var(--color21, #0d82ca)" d="M10.021 12.309c0.319-0.304 0.639-0.578 0.956-0.82-0.072-0.159-0.147-0.306-0.228-0.44-0.257 0.312-0.491 0.723-0.728 1.261z"></path>
<path fill="#0d82ca" style="fill: var(--color21, #0d82ca)" d="M10.251 10.43c0.183 0.153 0.348 0.365 0.498 0.618 0.047-0.058 0.095-0.112 0.145-0.162-0.209-0.194-0.434-0.354-0.678-0.474l0.030 0.014 0.005 0.004z"></path>
<path fill="#000" style="fill: var(--color8, #000)" d="M2.532 19.285c2.558-4.93 3.77-8.050 5.91-8.894-2.206 0.864-4.691 4.12-5.91 8.894z"></path>
<path fill="#127bca" style="fill: var(--color22, #127bca)" d="M10.893 10.886c-0.050 0.051-0.097 0.104-0.145 0.162 0.081 0.134 0.155 0.281 0.228 0.44 0.095-0.072 0.189-0.141 0.282-0.208-0.116-0.143-0.238-0.275-0.366-0.394z"></path>
<path fill="#000" style="fill: var(--color8, #000)" d="M3.693 22.079l-0.046 0.006h-0.009l-0.039 0.004h-0.006l-0.094 0.006h-0.010c2.589-0.073 3.773-1.369 4.36-3.249 0.446-1.425 0.813-2.626 1.134-3.634-1.085 1.526-2.174 3.346-3.269 5.385-0.528 0.983-1.331 1.393-2.020 1.48z"></path>
<path fill="#000" style="fill: var(--color8, #000)" d="M3.693 22.078c0.689-0.088 1.492-0.498 2.020-1.481 1.095-2.038 2.185-3.858 3.269-5.384 0.394-1.237 0.72-2.184 1.038-2.905-2.16 2.056-4.328 5.474-6.327 9.769z"></path>
<path fill="#05a1e6" style="fill: var(--color23, #05a1e6)" d="M2.532 19.285c-0.458 0.883-0.958 1.823-1.516 2.817h0.976c0.129-0.987 0.312-1.928 0.54-2.816z"></path>
<path fill="#000" style="fill: var(--color8, #000)" d="M9.268 10.177l-0.021 0.004-0.037 0.005-0.060 0.011-0.017 0.004-0.083 0.014h-0.009l-0.040 0.008-0.020 0.005-0.039 0.008-0.018 0.005-0.137 0.036-0.016 0.005-0.041 0.012-0.019 0.005-0.041 0.012-0.015 0.004-0.095 0.034-0.043 0.015-0.018 0.008-0.040 0.015-0.014 0.007c-2.139 0.844-3.351 3.964-5.91 8.894-0.227 0.888-0.411 1.829-0.539 2.816h0.137l0.939-0.004h0.431l0.094-0.006h0.006l0.039-0.004h0.009l0.046-0.006c2-4.296 4.168-7.713 6.327-9.769 0.238-0.538 0.472-0.949 0.728-1.26-0.15-0.253-0.314-0.465-0.497-0.619l-0.005-0.004-0.030-0.015-0.030-0.015-0.029-0.014-0.035-0.014-0.027-0.012-0.057-0.024-0.024-0.009-0.042-0.017-0.023-0.008-0.059-0.020h-0.005l-0.068-0.019-0.015-0.005-0.070-0.020c-0.046-0.012-0.094-0.022-0.142-0.031l-0.015-0.004-0.062-0.010-0.012-0.004-0.073-0.010h-0.013l-0.056-0.006-0.089 0.008z"></path>
<path fill="#000" style="fill: var(--color8, #000)" d="M23.828 13.102c-0.492 1.577-0.891 2.877-1.238 3.948 1.351-1.859 2.681-4.197 3.948-6.895-1.478 0.464-2.266 1.527-2.71 2.947z"></path>
<path fill="#000" style="fill: var(--color8, #000)" d="M22.633 21.405c-0.069 0.035-0.138 0.068-0.206 0.099 2.627-1.172 5.761-5.819 7.261-11.605h-0.304c-3.447 6.158-4.555 10.28-6.751 11.507z"></path>
<path fill="#079ae1" style="fill: var(--color24, #079ae1)" d="M20.917 20.888c0.572-0.698 1.037-1.884 1.673-3.838-0.733 1.007-1.471 1.873-2.21 2.579l-0.004 0.006c0.161 0.483 0.338 0.909 0.54 1.253z"></path>
<path fill="#1969bc" style="fill: var(--color18, #1969bc)" d="M20.917 20.888c-0.195 0.238-0.401 0.418-0.63 0.552-0.050 0.029-0.101 0.057-0.152 0.082 0.242 0.131 0.506 0.218 0.802 0.253l0.131 0.012h0.008l0.063 0.004h0.214l0.024-0.004 0.047-0.004h0.023l0.051-0.006h0.004l0.016-0.004 0.055-0.009h0.016l0.061-0.010h0.010l0.123-0.026c-0.339-0.124-0.623-0.417-0.867-0.834z"></path>
<path fill="#1e5cb3" style="fill: var(--color25, #1e5cb3)" d="M16.074 21.79c0.245 0 0.494-0.024 0.743-0.072 0.231-0.042 0.462-0.106 0.693-0.187 0.193 0.094 0.395 0.164 0.609 0.208 0.166 0.034 0.338 0.051 0.519 0.051h-2.564z"></path>
<path fill="#1e5cb3" style="fill: var(--color25, #1e5cb3)" d="M18.638 21.79c0.607 0 1.088-0.072 1.497-0.268 0.242 0.131 0.506 0.218 0.802 0.253l0.131 0.011h0.008l0.063 0.004h-2.5z"></path>
<path fill="#1d60b5" style="fill: var(--color26, #1d60b5)" d="M21.213 21.79h0.14l0.024-0.004 0.048-0.004h0.023l0.051-0.006h0.004l0.015-0.004 0.055-0.008 0.017-0.004 0.062-0.010h0.010l0.123-0.026c0.119 0.044 0.242 0.066 0.376 0.066l-0.947 0.004-0-0.005z"></path>
<path fill="#175fab" style="fill: var(--color27, #175fab)" d="M20.378 19.635v-0.004c-0.27 0.259-0.541 0.496-0.81 0.71-0.141 0.112-0.281 0.218-0.423 0.318 0.119 0.142 0.24 0.275 0.367 0.396 0.193 0.187 0.399 0.345 0.625 0.467 0.051-0.025 0.102-0.053 0.152-0.082 0.23-0.134 0.435-0.315 0.63-0.552-0.201-0.344-0.378-0.77-0.539-1.253z"></path>
<path fill="#000" style="fill: var(--color8, #000)" d="M28.421 9.899h-1.53l-0.242 0.012-0.113 0.242c-1.267 2.698-2.597 5.036-3.948 6.895-0.635 1.954-1.101 3.141-1.672 3.838 0.244 0.417 0.529 0.71 0.866 0.834l0.026-0.006h0.006l0.019-0.004 0.043-0.011 0.025-0.007 0.038-0.010 0.023-0.007 0.056-0.017 0.028-0.009 0.032-0.012 0.032-0.010 0.026-0.010 0.066-0.023 0.018-0.007 0.041-0.016 0.017-0.006 0.142-0.061h0.005c0.068-0.030 0.137-0.064 0.205-0.099 2.196-1.227 3.305-5.349 6.752-11.507l-0.962-0.001z"></path>
<path fill="#7dcbec" style="fill: var(--color28, #7dcbec)" d="M9.358 10.169l0.016 0.004 0.040 0.004h0.014l0.073 0.009 0.012 0.004 0.062 0.010 0.015 0.004 0.142 0.031 0.013 0.004 0.057 0.016 0.016 0.005 0.068 0.019 0.005 0.004 0.059 0.020 0.023 0.007 0.043 0.017 0.024 0.008 0.056 0.024 0.027 0.012 0.034 0.015 0.030 0.014 0.030 0.015c0.245 0.12 0.47 0.28 0.678 0.475 0.077-0.081 0.157-0.153 0.241-0.219-0.456-0.323-0.973-0.508-1.568-0.508-0.069 0-0.138 0.004-0.208 0.009z"></path>
<path fill="#5ec5ed" style="fill: var(--color29, #5ec5ed)" d="M10.893 10.886c0.128 0.119 0.25 0.251 0.366 0.394 0.112-0.078 0.223-0.153 0.334-0.223-0.146-0.146-0.3-0.277-0.46-0.39-0.083 0.065-0.163 0.138-0.24 0.219z"></path>
<path fill="#000" style="fill: var(--color8, #000)" d="M9.292 10.185l0.208-0.009c0.596 0 1.112 0.184 1.567 0.507 0.481-0.38 1.063-0.512 1.87-0.512h-3.911l0.265 0.014z"></path>
<path fill="#000" style="fill: var(--color8, #000)" d="M12.938 10.172c-0.808 0-1.388 0.133-1.87 0.512 0.159 0.112 0.313 0.244 0.459 0.39 0.67-0.425 1.333-0.708 1.986-0.83 0.25-0.047 0.498-0.071 0.743-0.071l-1.319-0.001z"></path>
<path fill="#000" style="fill: var(--color8, #000)" d="M22.59 17.050c0.348-1.071 0.745-2.371 1.238-3.948 0.444-1.421 1.231-2.483 2.709-2.947l0.114-0.242c-2.409 0.144-3.535 1.37-4.101 3.184-0.991 3.168-1.591 5.222-2.169 6.531 0.738-0.706 1.476-1.572 2.209-2.578z"></path>
</symbol>
<symbol id="icon-message" viewBox="0 0 20 20">
<title>message</title>
<path d="M18 6v7c0 1.1-0.9 2-2 2h-4v3l-4-3h-4c-1.101 0-2-0.9-2-2v-7c0-1.1 0.899-2 2-2h12c1.1 0 2 0.9 2 2z"></path>
</symbol>
<symbol id="icon-reply" viewBox="0 0 20 20">
<title>reply</title>
<path d="M19 16.685c0 0-2.225-9.732-11-9.732v-3.984l-7 6.573 7 6.69v-4.357c4.763-0.001 8.516 0.421 11 4.81z"></path>
</symbol>
<symbol id="icon-facebook" viewBox="0 0 20 20">
<title>facebook</title>
<path d="M17 1h-14c-1.1 0-2 0.9-2 2v14c0 1.101 0.9 2 2 2h7v-7h-2v-2.475h2v-2.050c0-2.164 1.212-3.684 3.766-3.684l1.803 0.002v2.605h-1.197c-0.994 0-1.372 0.746-1.372 1.438v1.69h2.568l-0.568 2.474h-2v7h4c1.1 0 2-0.899 2-2v-14c0-1.1-0.9-2-2-2z"></path>
</symbol>
<symbol id="icon-instagram" viewBox="0 0 20 20">
<title>instagram</title>
<path d="M17 1h-14c-1.1 0-2 0.9-2 2v14c0 1.101 0.9 2 2 2h14c1.1 0 2-0.899 2-2v-14c0-1.1-0.9-2-2-2zM9.984 15.523c3.059 0 5.538-2.481 5.538-5.539 0-0.338-0.043-0.664-0.103-0.984h1.581v7.216c0 0.382-0.31 0.69-0.693 0.69h-12.614c-0.383 0-0.693-0.308-0.693-0.69v-7.216h1.549c-0.061 0.32-0.104 0.646-0.104 0.984 0 3.059 2.481 5.539 5.539 5.539zM6.523 9.984c0-1.912 1.55-3.461 3.462-3.461s3.462 1.549 3.462 3.461-1.551 3.462-3.462 3.462c-1.913 0-3.462-1.55-3.462-3.462zM16.307 6h-1.615c-0.382 0-0.692-0.312-0.692-0.692v-1.617c0-0.382 0.31-0.691 0.691-0.691h1.615c0.384 0 0.694 0.309 0.694 0.691v1.616c0 0.381-0.31 0.693-0.693 0.693z"></path>
</symbol>
<symbol id="icon-twitter" viewBox="0 0 20 20">
<title>twitter</title>
<path d="M17.316 6.246c0.008 0.162 0.011 0.326 0.011 0.488 0 4.99-3.797 10.742-10.74 10.742-2.133 0-4.116-0.625-5.787-1.697 0.296 0.035 0.596 0.053 0.9 0.053 1.77 0 3.397-0.604 4.688-1.615-1.651-0.031-3.046-1.121-3.526-2.621 0.23 0.043 0.467 0.066 0.71 0.066 0.345 0 0.679-0.045 0.995-0.131-1.727-0.348-3.028-1.873-3.028-3.703 0-0.016 0-0.031 0-0.047 0.509 0.283 1.092 0.453 1.71 0.473-1.013-0.678-1.68-1.832-1.68-3.143 0-0.691 0.186-1.34 0.512-1.898 1.861 2.285 4.644 3.787 7.781 3.945-0.064-0.277-0.097-0.564-0.097-0.861 0-2.084 1.689-3.773 3.774-3.773 1.086 0 2.067 0.457 2.756 1.191 0.859-0.17 1.667-0.484 2.397-0.916-0.282 0.881-0.881 1.621-1.66 2.088 0.764-0.092 1.49-0.293 2.168-0.594-0.506 0.758-1.146 1.422-1.884 1.953z"></path>
</symbol>
<symbol id="icon-happy2" viewBox="0 0 32 32">
<title>happy2</title>
<path d="M16 0c-8.837 0-16 7.163-16 16s7.163 16 16 16 16-7.163 16-16-7.163-16-16-16zM22 8c1.105 0 2 1.343 2 3s-0.895 3-2 3-2-1.343-2-3 0.895-3 2-3zM10 8c1.105 0 2 1.343 2 3s-0.895 3-2 3-2-1.343-2-3 0.895-3 2-3zM16 28c-5.215 0-9.544-4.371-10-9.947 2.93 1.691 6.377 2.658 10 2.658s7.070-0.963 10-2.654c-0.455 5.576-4.785 9.942-10 9.942z"></path>
</symbol>
<symbol id="icon-angry2" viewBox="0 0 32 32">
<title>angry2</title>
<path d="M16 0c-8.837 0-16 7.163-16 16s7.163 16 16 16 16-7.163 16-16-7.163-16-16-16zM18.003 11.891c0.064-1.483 1.413-2.467 2.55-3.036 1.086-0.543 2.16-0.814 2.205-0.826 0.536-0.134 1.079 0.192 1.213 0.728s-0.192 1.079-0.728 1.213c-0.551 0.139-1.204 0.379-1.779 0.667 0.333 0.357 0.537 0.836 0.537 1.363 0 1.105-0.895 2-2 2s-2-0.895-2-2c0-0.037 0.001-0.073 0.003-0.109zM8.030 8.758c0.134-0.536 0.677-0.862 1.213-0.728 0.045 0.011 1.119 0.283 2.205 0.826 1.137 0.569 2.486 1.553 2.55 3.036 0.002 0.036 0.003 0.072 0.003 0.109 0 1.105-0.895 2-2 2s-2-0.895-2-2c0-0.527 0.204-1.005 0.537-1.363-0.575-0.288-1.228-0.528-1.779-0.667-0.536-0.134-0.861-0.677-0.728-1.213zM22.003 24.398c-1.224-2.036-3.454-3.398-6.003-3.398s-4.779 1.362-6.003 3.398l-2.573-1.544c1.749-2.908 4.935-4.855 8.576-4.855s6.827 1.946 8.576 4.855l-2.573 1.544z"></path>
</symbol>
<symbol id="icon-neutral2" viewBox="0 0 32 32">
<title>neutral2</title>
<path d="M16 0c-8.837 0-16 7.163-16 16s7.163 16 16 16c8.837 0 16-7.163 16-16s-7.163-16-16-16zM20 24h-8v-2h8v2zM22 8c1.105 0 2 0.895 2 2s-0.895 2-2 2-2-0.895-2-2c0-1.105 0.895-2 2-2zM10 8c1.105 0 2 0.895 2 2s-0.895 2-2 2-2-0.895-2-2c0-1.105 0.895-2 2-2z"></path>
</symbol>
<symbol id="icon-whatsapp" viewBox="0 0 32 32">
<title>whatsapp</title>
<path d="M27.281 4.65c-2.994-3-6.975-4.65-11.219-4.65-8.738 0-15.85 7.112-15.85 15.856 0 2.794 0.731 5.525 2.119 7.925l-2.25 8.219 8.406-2.206c2.319 1.262 4.925 1.931 7.575 1.931h0.006c0 0 0 0 0 0 8.738 0 15.856-7.113 15.856-15.856 0-4.238-1.65-8.219-4.644-11.219zM16.069 29.050v0c-2.369 0-4.688-0.637-6.713-1.837l-0.481-0.288-4.987 1.306 1.331-4.863-0.313-0.5c-1.325-2.094-2.019-4.519-2.019-7.012 0-7.269 5.912-13.181 13.188-13.181 3.519 0 6.831 1.375 9.319 3.862 2.488 2.494 3.856 5.8 3.856 9.325-0.006 7.275-5.919 13.188-13.181 13.188zM23.294 19.175c-0.394-0.2-2.344-1.156-2.706-1.288s-0.625-0.2-0.894 0.2c-0.262 0.394-1.025 1.288-1.256 1.556-0.231 0.262-0.462 0.3-0.856 0.1s-1.675-0.619-3.188-1.969c-1.175-1.050-1.975-2.35-2.206-2.744s-0.025-0.613 0.175-0.806c0.181-0.175 0.394-0.463 0.594-0.694s0.262-0.394 0.394-0.662c0.131-0.262 0.069-0.494-0.031-0.694s-0.894-2.15-1.219-2.944c-0.319-0.775-0.65-0.669-0.894-0.681-0.231-0.012-0.494-0.012-0.756-0.012s-0.694 0.1-1.056 0.494c-0.363 0.394-1.387 1.356-1.387 3.306s1.419 3.831 1.619 4.1c0.2 0.262 2.794 4.269 6.769 5.981 0.944 0.406 1.681 0.65 2.256 0.837 0.95 0.3 1.813 0.256 2.494 0.156 0.762-0.113 2.344-0.956 2.675-1.881s0.331-1.719 0.231-1.881c-0.094-0.175-0.356-0.275-0.756-0.475z"></path>
</symbol>
</defs>
</svg>
